<?xml version="1.0" encoding="UTF-8"?>
<svg id="Capa_1" xmlns="http://www.w3.org/2000/svg" version="1.1" xmlns:xlink="http://www.w3.org/1999/xlink" viewBox="0 0 52.6 60.45">
  <!-- Generator: Adobe Illustrator 29.0.1, SVG Export Plug-In . SVG Version: 2.1.0 Build 192)  -->
  <defs>
    <style>
      .st0 {
        font-family: MyriadPro-Black, 'Myriad Pro';
        font-size: 11px;
        font-weight: 800;
      }

      .st0, .st1 {
        fill: #848484;
      }

      .st2, .st3 {
        fill: none;
      }

      .st4 {
        clip-path: url(#clippath-1);
      }

      .st5 {
        clip-path: url(#clippath-3);
      }

      .st3 {
        stroke: #848484;
        stroke-miterlimit: 10;
        stroke-width: 1.3px;
      }

      .st6 {
        clip-path: url(#clippath-2);
      }

      .st7 {
        clip-path: url(#clippath);
      }
    </style>
    <clipPath id="clippath">
      <polygon class="st2" points="40.97 410.83 32.59 413.29 10.33 413.9 9.12 421.02 11.03 431.19 18.23 417.09 20.89 417.09 32.67 440.66 33.5 442.1 44.99 441.79 45.5 413.39 40.97 410.83"/>
    </clipPath>
    <clipPath id="clippath-1">
      <rect class="st2" x="11.56" y="876.27" width="37.14" height="27.27"/>
    </clipPath>
    <clipPath id="clippath-2">
      <path class="st2" d="M23.24,681.54v-17.28c0-1.56.84-3,2.2-3.77.95-.54,1.53-1.55,1.53-2.63v-3.9H7.43v28.96h16.35c-.33-.36-.54-.84-.54-1.37Z"/>
    </clipPath>
    <clipPath id="clippath-3">
      <polygon class="st2" points="32.42 669.52 39.08 669.52 39.08 646.96 23.47 646.96 23.47 682.47 34.29 682.47 32.42 669.52"/>
    </clipPath>
  </defs>
  <g>
    <text class="st0" transform="translate(5.63 226.18)"><tspan x="0" y="0">Produce</tspan></text>
    <g>
      <path class="st1" d="M30.31,189.81l.27-.52-.9-.47-.27.52c-.5.96-1.33,1.69-2.32,2.07v-4.51c1.18-.37,2.17-1.17,2.75-2.25l.23-.43-.89-.48-.23.43c-.41.75-1.06,1.33-1.86,1.66v-3.37h-1.01v3.37c-.79-.32-1.45-.9-1.86-1.66l-.23-.43-.89.48.23.43c.58,1.08,1.57,1.88,2.75,2.25v4.51c-.99-.39-1.82-1.12-2.32-2.07l-.27-.52-.9.47.27.52c.68,1.29,1.84,2.25,3.22,2.68v4.51c-.99-.39-1.82-1.12-2.32-2.07l-.27-.52-.9.47.27.52c.68,1.29,1.84,2.25,3.22,2.68v7.22h1.01v-7.22c1.38-.43,2.54-1.38,3.22-2.68l.27-.52-.9-.47-.27.52c-.5.96-1.33,1.69-2.32,2.07v-4.51c1.38-.43,2.54-1.38,3.22-2.68Z"/>
      <path class="st1" d="M39.16,200.47c.5-.43.88-.99,1.09-1.62l-.96-.32c-.19.56-.56,1.05-1.04,1.38v-2.23h-1.01v2.23c-.48-.33-.85-.81-1.04-1.38l-.96.32c.21.63.6,1.19,1.09,1.62-1.54.58-2.64,2.06-2.64,3.8,0,2.24,1.82,4.06,4.06,4.06s4.06-1.82,4.06-4.06c0-1.74-1.1-3.22-2.64-3.8ZM37.74,207.31c-1.68,0-3.04-1.37-3.04-3.04s1.37-3.04,3.04-3.04,3.04,1.37,3.04,3.04-1.37,3.04-3.04,3.04Z"/>
      <path class="st1" d="M40.27,178.46c.02-.14-.03-.29-.12-.4-.1-.11-.23-.17-.38-.17h-1.52c-.24,0-.45.17-.5.41v.05s-.02-.05-.02-.05c-.05-.24-.25-.41-.5-.41h-1.52c-.15,0-.28.06-.38.17-.1.11-.14.25-.12.4l1.01,8.08v4.13c0,1.03-.22,2.07-.46,3.13-.06.26-.07.53-.02.8.14.82.82,1.5,1.64,1.64.12.02.24.03.36.03.48,0,.94-.17,1.31-.48.46-.39.72-.95.72-1.55,0-.1,0-.2-.02-.29l-.11-.72c-.19-1.26-.38-2.45-.38-3.67v-3.01l1.01-8.08ZM36.28,178.9h.53l1.44,7.66v1.59l-1.03-1.8-.93-7.44ZM38.39,195.02c-.23.2-.53.27-.84.22-.4-.07-.74-.41-.81-.82-.02-.14-.02-.27,0-.4.25-1.12.48-2.21.48-3.35v-2.25l1.04,1.82c.05,1.06.21,2.12.36,3.14l.11.72s.01.1.01.15c0,.3-.13.58-.36.78ZM38.65,183.23l-.41-2.2h.03s.4-2.12.4-2.12h.53l-.54,4.32Z"/>
      <path class="st1" d="M34.7,186.51c0-1.37-.77-2.59-2-3.19-.24-.12-.35-.38-.26-.63.21-.56.28-1.18.19-1.78-.23-1.55-1.52-2.81-3.08-2.99-.97-.11-1.91.16-2.66.76-.18.15-.44.15-.62,0-.75-.6-1.69-.87-2.66-.76-1.56.19-2.85,1.44-3.08,2.99-.09.61-.02,1.22.19,1.78.09.25-.02.51-.26.63-1.23.6-2,1.82-2,3.19,0,.82.28,1.61.8,2.25.14.17.14.41,0,.58-.52.63-.8,1.43-.8,2.25s.29,1.62.8,2.25c.13.16.13.42-.01.59-.25.31-.45.67-.59,1.05-.13.38-.2.78-.2,1.18,0,.87.32,1.72.9,2.37.66.73,1.59,1.16,2.57,1.18l.67,4.67c.28,1.97,1.99,3.45,3.98,3.45s3.7-1.48,3.98-3.45l.67-4.67c.85-.02,1.66-.34,2.29-.9.75-.67,1.18-1.64,1.18-2.65,0-.41-.07-.8-.2-1.18-.13-.38-.33-.73-.59-1.05-.14-.18-.15-.43-.01-.59.52-.63.8-1.43.8-2.25s-.28-1.61-.8-2.25c-.14-.17-.14-.41,0-.58.52-.63.8-1.43.8-2.25ZM33.11,189.98c.37.45.57,1.02.57,1.6s-.2,1.15-.57,1.6c-.44.54-.44,1.33,0,1.88.18.22.32.48.42.75s.14.56.14.85c0,.72-.31,1.41-.85,1.89-.47.42-1.07.65-1.69.65-.09,0-.17-.01-.29-.03-.28-.04-.53.16-.57.43l-.73,5.13c-.21,1.47-1.49,2.58-2.97,2.58s-2.76-1.11-2.97-2.58l-.73-5.13c-.04-.25-.28-.43-.54-.43-.02,0-.05,0-.07,0-.78.1-1.61-.22-2.15-.82-.42-.47-.65-1.07-.65-1.69,0-.29.05-.57.14-.85.1-.27.24-.52.42-.75.45-.55.45-1.34,0-1.88-.37-.46-.57-1.01-.57-1.6s.2-1.15.57-1.6c.44-.54.44-1.32,0-1.86-.37-.45-.57-1.02-.57-1.6,0-.98.55-1.85,1.43-2.28.71-.35,1.04-1.16.76-1.9-.15-.41-.2-.84-.13-1.28.16-1.1,1.08-2,2.19-2.13.69-.08,1.37.11,1.9.54.55.44,1.35.44,1.9,0,.54-.43,1.21-.62,1.9-.54,1.11.13,2.03,1.03,2.19,2.13.06.44.02.87-.14,1.28-.28.74.05,1.55.76,1.9.88.43,1.43,1.3,1.43,2.28,0,.58-.2,1.15-.57,1.6-.44.54-.44,1.32,0,1.86Z"/>
      <path class="st1" d="M11.46,187.64l.85,18.68c.05,1.12.97,2,2.1,2s2.05-.88,2.1-2l.85-18.68c.03-.7-.22-1.36-.7-1.87-.06-.06-.13-.11-.19-.16l.48-7.69-1.01-.06-.45,7.23c-.18-.05-.37-.08-.56-.09v-7.11h-1.01v7.11c-.18,0-.36.03-.53.08l-.48-7.22-1.01.07.51,7.61h.07c-.1.07-.2.15-.29.24-.48.51-.73,1.17-.7,1.87ZM12.89,186.48c.29-.3.68-.47,1.1-.47h.83c.42,0,.81.17,1.1.47.29.3.44.7.42,1.12l-.23,5h-1.71v1.01h1.66l-.37,8.12h-1.29v1.01h1.24l-.16,3.53c-.03.58-.5,1.04-1.08,1.04s-1.06-.45-1.08-1.04l-.39-8.6h1.47v-1.01h-1.52l-.32-7.1h1.84v-1.01h-1.89l-.04-.95c-.02-.42.13-.82.42-1.12Z"/>
      <path class="st1" d="M35.71,204.26c0,.5.18.98.52,1.35l.76-.68c-.17-.19-.26-.43-.26-.68,0-.43.27-.81.68-.96l-.34-.96c-.81.29-1.35,1.05-1.35,1.91Z"/>
    </g>
    <rect class="st3" x="2.77" y="171.37" width="46.84" height="42.72" rx="2.89" ry="2.89"/>
  </g>
  <g>
    <text class="st0" transform="translate(5.03 57.44)"><tspan x="0" y="0">Seafood</tspan></text>
    <g>
      <path class="st1" d="M36.48,10.82h-1.89c-.77,0-1.51.2-2.16.58-.09.03-.18.07-.25.14l-.03.03c-.45.31-.84.7-1.15,1.17-.16.24-.11.56.11.74.22.18.55.17.75-.04l.83-.83,2.68,1.34v.47l-1.79,1.19c-.54.36-1.27.29-1.72-.17-.22-.22-.57-.22-.79,0-.11.11-.16.25-.16.39s.05.29.16.39c.82.82,1.92,1.28,3.09,1.28h2.88v1.12h-1.12c-1.55,0-2.94.93-3.56,2.34-.49-.19-.99-.36-1.49-.51.36-.31.6-.76.6-1.27,0-.92-.75-1.67-1.67-1.67s-1.67.75-1.67,1.67c0,.26.06.5.17.72-.77-.1-1.54-.16-2.33-.16-.84,0-1.67.06-2.49.18.11-.22.18-.47.18-.74,0-.92-.75-1.67-1.67-1.67s-1.67.75-1.67,1.67c0,.53.25.99.63,1.3-.51.15-1.01.34-1.5.54-.61-1.44-2.01-2.39-3.59-2.39h-1.12v-1.12h2.88c1.17,0,2.26-.45,3.09-1.28.11-.11.16-.25.16-.39s-.05-.29-.16-.39c-.22-.22-.57-.22-.79,0-.46.46-1.18.53-1.72.17l-1.79-1.19v-.47l2.68-1.34.83.83c.2.2.53.22.75.04.22-.18.27-.5.11-.74-.31-.47-.7-.86-1.15-1.17l-.03-.03c-.07-.07-.15-.12-.25-.14-.65-.37-1.39-.58-2.16-.58h-1.89c-3.38,0-6.14,2.75-6.14,6.14v2.23c0,2.15,1.75,3.9,3.9,3.9h2.61l-1.8,1.21c-.15.1-.24.27-.25.46s.08.36.23.46l.15.1h-1.82l-2.07-2.07-.79.79,2.23,2.23c.1.1.25.16.39.16h3.61l.66.47c.27.2.53.41.78.64h-1.7c-.06,0-.12,0-.18.03l-3.02,1.01-1.99-1.99-.79.79,2.23,2.23c.11.11.25.16.39.16.06,0,.12,0,.18-.03l3.26-1.09h2.61c.19.26.37.53.52.81l.17.31h-1.72c-.06,0-.12,0-.18.03l-3.35,1.12c-.15.05-.27.16-.34.31l-1.67,3.9,1.03.44,1.57-3.67,3.02-1.01h2.25l.12.22c.19.34.42.63.69.89h-2.59c-1.54,0-2.79,1.25-2.79,2.79v1.67c0,1.85,1.5,3.35,3.35,3.35,1.23,0,2.23-1,2.23-2.23s-1-2.23-2.23-2.23h1.67c1.35,0,2.48-.97,2.74-2.26.12.01.23.02.35.02h6.31s.1,0,.14-.01c.25,1.28,1.38,2.24,2.73,2.24h1.67c-1.23,0-2.23,1-2.23,2.23s1,2.23,2.23,2.23c1.85,0,3.35-1.5,3.35-3.35v-1.67c0-1.54-1.25-2.79-2.79-2.79h-2.39c.33-.32.59-.7.79-1.12h2.06l3.02,1.01,1.57,3.67,1.03-.44-1.67-3.9c-.06-.15-.18-.26-.34-.31l-3.35-1.12c-.06-.02-.12-.03-.18-.03h-1.65c.2-.39.43-.77.69-1.12h2.54l3.26,1.09c.06.02.12.03.18.03.15,0,.29-.06.39-.16l2.23-2.23-.79-.79-1.99,1.99-3.02-1.01c-.06-.02-.12-.03-.18-.03h-1.61c.18-.16.36-.32.56-.46l.87-.65h3.53c.15,0,.29-.06.39-.16l2.23-2.23-.79-.79-2.07,2.07h-1.81l.15-.11c.14-.11.22-.27.22-.45s-.09-.34-.23-.45l-1.69-1.22h2.48c2.15,0,3.9-1.75,3.9-3.9v-2.23c0-3.38-2.75-6.14-6.14-6.14ZM16.4,11.94h.78c.22,0,.43.02.64.06l-1.41.71v-.77ZM15.84,34.81c0-.73.47-1.35,1.12-1.58v2.14h-1.12v-.56ZM19.19,37.6c0,.62-.5,1.12-1.12,1.12-1.23,0-2.23-1-2.23-2.23h2.23c.62,0,1.12.5,1.12,1.12ZM29.79,18.63c.31,0,.56.25.56.56s-.25.56-.56.56-.56-.25-.56-.56.25-.56.56-.56ZM21.98,18.63c.31,0,.56.25.56.56s-.25.56-.56.56-.56-.25-.56-.56.25-.56.56-.56ZM13.61,19.19v2.79h-.56c-1.54,0-2.79-1.25-2.79-2.79v-1.67h3.35v1.67ZM10.29,16.4c.28-2.51,2.41-4.46,4.99-4.46v2.79c0,.19.09.36.25.46l1.81,1.21h-7.05ZM14.72,21.98v-2.23h1.12c1.13,0,2.14.69,2.57,1.72-.33.16-.66.33-.98.51h-2.7ZM19.74,34.25h-1.67v-1.12h3.25c-.23.65-.85,1.12-1.58,1.12ZM34.81,34.81v-1.58c.65.23,1.12.85,1.12,1.58v.56h-1.12v-.56ZM35.92,36.48c0,1.23-1,2.23-2.23,2.23-.62,0-1.12-.5-1.12-1.12s.5-1.12,1.12-1.12h2.23ZM33.69,33.14v1.12h-1.67c-.73,0-1.35-.47-1.58-1.12h3.25ZM36.65,24.78l-1.9,1.42c-1.37,1.02-2.4,2.41-3,4.01-.41,1.08-1.46,1.81-2.61,1.81h-6.31c-1.01,0-1.95-.55-2.44-1.43l-.92-1.65c-.64-1.15-1.54-2.16-2.62-2.93l-1.71-1.22,1.71-1.15c2.7-1.81,5.85-2.77,9.1-2.77,3.46,0,6.77,1.07,9.57,3.1l1.13.82ZM37.04,21.98h-2.57c-.36-.2-.72-.39-1.09-.57.44-1,1.44-1.67,2.54-1.67h1.12v2.23ZM33.95,12c.21-.04.42-.06.64-.06h.78v.77l-1.41-.71ZM41.5,19.19c0,1.54-1.25,2.79-2.79,2.79h-.56v-4.46h3.35v1.67ZM37.6,16.4h-3.18l1.81-1.21c.16-.1.25-.28.25-.46v-2.79c2.58,0,4.71,1.96,4.99,4.46h-3.87Z"/>
      <path class="st1" d="M22.93,24.37l-.79.79,1.28,1.28-1.28,1.28.79.79,1.67-1.67c.22-.22.22-.57,0-.79l-1.67-1.67Z"/>
      <path class="st1" d="M28.83,24.37l-1.67,1.67c-.22.22-.22.57,0,.79l1.67,1.67.79-.79-1.28-1.28,1.28-1.28-.79-.79Z"/>
    </g>
    <rect class="st3" x="2.48" y="3.01" width="46.84" height="42.72" rx="2.89" ry="2.89"/>
  </g>
  <g>
    <text class="st0" transform="translate(3.41 462.88)"><tspan x="0" y="0">Hot Food</tspan></text>
    <g>
      <path class="st1" d="M19.34,417.41l-11.04,21.9.64.32c3.24,1.64,6.74,2.47,10.39,2.47s7.15-.83,10.39-2.47l.64-.32-11.04-21.9ZM21.06,424.02l1.58,3.14c-.25.13-.52.19-.8.19-.97,0-1.76-.79-1.76-1.76,0-.68.39-1.28.98-1.58h0ZM20.41,422.73c-.37.19-.7.44-.98.76-.51.58-.79,1.33-.79,2.1,0,1.76,1.44,3.2,3.2,3.2.51,0,1-.12,1.45-.35l3.55,7.04c-2.34,1.14-4.86,1.72-7.5,1.72s-5.15-.58-7.5-1.72l7.5-14.88,1.07,2.12ZM19.34,440.66c-3.18,0-6.24-.67-9.1-2l.95-1.89c2.55,1.24,5.29,1.87,8.14,1.87s5.6-.63,8.14-1.87l.95,1.89c-2.85,1.33-5.91,2-9.1,2h0ZM19.34,440.66"/>
      <path class="st1" d="M18.76,435.15c1.31,0,2.37-1.06,2.37-2.37s-1.06-2.37-2.37-2.37-2.37,1.06-2.37,2.37,1.06,2.37,2.37,2.37h0ZM18.76,431.84c.51,0,.93.42.93.93s-.42.93-.93.93-.93-.42-.93-.93.42-.93.93-.93h0ZM18.76,431.84"/>
      <rect class="st1" x="13.92" y="433.61" width="1.46" height="1.46"/>
      <rect class="st1" x="22.49" y="433.96" width="1.46" height="1.46"/>
      <rect class="st1" x="16.45" y="428.07" width="1.46" height="1.46"/>
      <rect class="st1" x="21.76" y="430.47" width="1.46" height="1.46"/>
    </g>
    <g class="st7">
      <g>
        <path class="st1" d="M41.29,420.44c.16.33.25.69.25,1.07v4.85c-.29-.22-.63-.38-1.01-.45-.16-.85-.76-1.54-1.55-1.83l3.36-7.27c.26-.56.21-1.21-.12-1.73s-.9-.83-1.52-.83c-.7,0-1.34.41-1.64,1.05l-3.14,6.81c-.22-.06-.45-.11-.68-.11h-1.5c-.22-1.1-1.2-1.94-2.37-1.94h-6.78c-1.17,0-2.15.83-2.37,1.94h-4.41c-.9,0-1.66.62-1.88,1.45h-.55c-.35,0-.68.1-.97.27v-2.21c0-1.33,1.09-2.42,2.42-2.42h19.37v-.97h-19.37c-1.87,0-3.39,1.52-3.39,3.39v10.17c0,1.19.61,2.23,1.54,2.84l.99,4.1c.29,1.05,1.25,1.78,2.34,1.78h19.31c1.09,0,2.05-.73,2.34-1.8l.99-4.08c.93-.61,1.54-1.65,1.54-2.84v-10.17c0-.53-.12-1.03-.35-1.5l-.87.43ZM39.94,415.69c.14-.29.43-.48.76-.48.29,0,.55.14.7.38s.18.54.05.8l-4.54,9.85c-.08.17-.05.36.06.51.53.66.7,1.59.49,2.5h-2.27c-.21-1.01-1.04-1.78-2.08-1.91.44-.7,1.1-1.2,1.84-1.34.15-.03.28-.13.35-.27l4.63-10.04ZM39.04,438.35c-.17.63-.75,1.07-1.4,1.07h-19.31c-.65,0-1.23-.44-1.4-1.06l-.82-3.38c.24.05.49.08.74.08h22.27c.25,0,.5-.03.74-.08l-.82,3.37ZM41.54,431.67c0,1.33-1.09,2.42-2.42,2.42h-22.27c-1.33,0-2.42-1.09-2.42-2.42v-6.29c0-.53.43-.97.97-.97h.97c.27,0,.48-.22.48-.48,0-.53.43-.97.97-.97h4.84c.27,0,.48-.22.48-.48,0-.8.65-1.45,1.45-1.45h6.78c.8,0,1.45.65,1.45,1.45,0,.27.22.48.48.48h1.94c.09,0,.18.01.27.03l-.98,2.12c-1.07.29-1.99,1.1-2.5,2.21h-2.12v.97h2.91c.8,0,1.45.65,1.45,1.45,0,.27.22.48.48.48h2.91c.8,0,1.45.65,1.45,1.45h.97c0-1.07-.7-1.97-1.66-2.29.23-1.07.05-2.16-.51-3l.66-1.43c.59.18,1.03.73,1.03,1.38,0,.27.22.48.48.48.8,0,1.45.65,1.45,1.45v3.39Z"/>
        <path class="st1" d="M17.81,427.8c-.8,0-1.45.65-1.45,1.45s.65,1.45,1.45,1.45,1.45-.65,1.45-1.45-.65-1.45-1.45-1.45ZM17.81,429.74c-.27,0-.48-.22-.48-.48s.22-.48.48-.48.48.22.48.48-.22.48-.48.48Z"/>
        <path class="st1" d="M29.43,430.22c-.8,0-1.45.65-1.45,1.45s.65,1.45,1.45,1.45,1.45-.65,1.45-1.45-.65-1.45-1.45-1.45ZM29.43,432.16c-.27,0-.48-.22-.48-.48s.22-.48.48-.48.48.22.48.48-.22.48-.48.48Z"/>
        <path class="st1" d="M24.59,424.41c-.8,0-1.45.65-1.45,1.45s.65,1.45,1.45,1.45,1.45-.65,1.45-1.45-.65-1.45-1.45-1.45ZM24.59,426.35c-.27,0-.48-.22-.48-.48s.22-.48.48-.48.48.22.48.48-.22.48-.48.48Z"/>
        <rect class="st1" x="18.78" y="425.38" width=".97" height=".97"/>
        <rect class="st1" x="21.69" y="428.77" width=".97" height=".97"/>
        <rect class="st1" x="26.53" y="422.47" width=".97" height=".97"/>
        <rect class="st1" x="24.59" y="432.16" width=".97" height=".97"/>
        <rect class="st1" x="29.92" y="424.41" width=".97" height=".97"/>
      </g>
    </g>
    <rect class="st3" x="2.56" y="408.19" width="46.84" height="42.72" rx="2.89" ry="2.89"/>
  </g>
  <g>
    <g>
      <path class="st1" d="M31.91,343.03h-13.75c-.26,0-.52,0-.78.02-.1,0-.19,0-.29,0-.18,0-.36.03-.54.04-.17.01-.33.02-.5.04-.07,0-.13.02-.19.02-.27.03-.54.06-.8.1-.08.01-.15.03-.23.04-.24.04-.49.08-.72.13-.14.03-.26.06-.4.09-.17.04-.34.08-.51.12-.02,0-.04.01-.06.02-1.73.47-3.14,1.18-4.07,2.05-.04.03-.07.07-.1.11-.11.11-.23.23-.33.34-.01.02-.02.03-.03.05-.24.3-.43.6-.56.93-.01.03-.01.05-.02.08-.12.31-.18.64-.18.97,0,1.22.81,2.37,2.29,3.28v9.9c0,1.26,1.03,2.29,2.29,2.29h25.21c1.26,0,2.29-1.03,2.29-2.29v-9.9c1.48-.91,2.29-2.06,2.29-3.28,0-2.89-4.53-5.16-10.31-5.16ZM25.04,351.13v10.23c0,.63-.51,1.15-1.15,1.15h-11.46c-.63,0-1.15-.51-1.15-1.15v-10.23c0-.21-.11-.4-.29-.5-1.29-.72-2-1.59-2-2.45,0-.19.04-.37.11-.56.02-.06.03-.11.06-.17.43-.94,1.69-1.85,3.55-2.48.05-.02.09-.03.14-.05.18-.06.38-.11.57-.17.06-.02.12-.04.18-.05.16-.04.32-.07.48-.11.11-.02.21-.05.33-.07.52-.11,1.08-.19,1.67-.25.04,0,.07,0,.11-.01.16-.02.33-.02.49-.04.16-.01.31-.03.47-.03.1,0,.2,0,.3,0,.24,0,.47-.02.71-.02,5.48,0,9.17,2.07,9.17,4.01,0,.86-.71,1.73-2,2.45-.18.1-.29.29-.29.5ZM39.34,350.48h-10.29v1.15h9.74v9.74c0,.63-.51,1.15-1.15,1.15h-11.78c.2-.34.32-.73.32-1.15v-9.9c1.48-.91,2.29-2.06,2.29-3.28,0-1.64-1.45-3.07-3.76-4.01h7.2c5.48,0,9.16,2.07,9.16,4.01,0,.8-.62,1.6-1.74,2.29Z"/>
      <rect class="st1" x="31.34" y="353.34" width="1.15" height="1.15"/>
      <rect class="st1" x="35.92" y="354.49" width="1.15" height="1.15"/>
      <rect class="st1" x="27.9" y="358.5" width="1.15" height="1.15"/>
      <rect class="st1" x="35.35" y="359.64" width="1.15" height="1.15"/>
      <rect class="st1" x="29.62" y="345.89" width="1.15" height="1.15"/>
      <rect class="st1" x="35.92" y="347.04" width="1.15" height="1.15"/>
    </g>
    <text class="st0" transform="translate(8.12 386.56)"><tspan x="0" y="0">Bakery</tspan></text>
    <rect class="st3" x="2.69" y="330.98" width="46.84" height="42.72" rx="2.89" ry="2.89"/>
  </g>
  <g>
    <g>
      <path class="st1" d="M39.01,497.23c-.13-.08-.3-.09-.44-.02l-.71.35-.71-.35c-.13-.06-.28-.06-.41,0l-.71.35-.71-.35c-.13-.06-.28-.06-.41,0l-.71.35-.71-.35c-.13-.06-.28-.06-.41,0l-.71.35-.71-.35c-.13-.06-.28-.06-.41,0l-.71.35-.71-.35c-.13-.06-.28-.06-.41,0l-.71.35-.71-.35c-.13-.06-.28-.06-.41,0l-.71.35-.71-.35c-.13-.06-.28-.06-.41,0l-.71.35-.71-.35c-.13-.06-.28-.06-.41,0l-.71.35-.71-.35c-.13-.06-.28-.06-.41,0l-.71.35-.71-.35c-.13-.06-.28-.06-.41,0l-.71.35-.71-.35c-.14-.07-.31-.06-.44.02-.13.08-.22.23-.22.39v2.74s0,0,0,0c0,.05.01.1.03.15,0,.01,0,.03.02.04,0,.01,0,.02.01.03l1.76,3.09v11.64l-.37.82.83.37.41-.91c.03-.06.04-.12.04-.19v-11.86c0-.08-.02-.16-.06-.23l-1.43-2.51h18.5l-1.43,2.51c-.04.07-.06.15-.06.23v11.86c0,.06.01.13.04.19l1.54,3.46h-1.58v.91h1.82v1.54l-.25-.13c-.13-.06-.28-.06-.41,0l-.71.35-.25-.13-.41.82.46.23c.13.06.28.06.41,0l.71-.35.71.35c.06.03.13.05.2.05.08,0,.17-.02.24-.07.13-.08.22-.23.22-.39v-2.74s0-.01,0-.02c0-.05-.01-.1-.03-.15,0,0,0-.01,0-.02,0,0,0,0,0,0l-1.78-4.02v-11.64l1.76-3.09s0-.02.01-.03c0-.01.01-.02.02-.04.02-.05.03-.1.03-.15,0,0,0,0,0,0v-2.74c0-.16-.08-.3-.22-.39ZM38.31,499.9h-19.16v-1.54l.25.13c.13.06.28.06.41,0l.71-.35.71.35c.13.06.28.06.41,0l.71-.35.71.35c.13.06.28.06.41,0l.71-.35.71.35c.13.06.28.06.41,0l.71-.35.71.35c.13.06.28.06.41,0l.71-.35.71.35c.13.06.28.06.41,0l.71-.35.71.35c.13.06.28.06.41,0l.71-.35.71.35c.13.06.28.06.41,0l.71-.35.71.35c.13.06.28.06.41,0l.71-.35.71.35c.13.06.28.06.41,0l.71-.35.71.35c.13.06.28.06.41,0l.25-.13v1.54Z"/>
      <path class="st1" d="M22.8,515.41c.07,0,.14-.02.2-.05l1.73-.86h6.28c2.26,0,4.1-1.84,4.1-4.1v-5.47c0-.16-.08-.3-.22-.39-.13-.08-.3-.09-.44-.02l-1.73.86h-6.28c-2.26,0-4.1,1.84-4.1,4.1v5.47c0,.16.08.3.22.39.07.05.16.07.24.07ZM23.26,509.48c0-1.76,1.43-3.19,3.19-3.19h6.39c.07,0,.14-.02.2-.05l1.16-.58v4.74c0,1.76-1.43,3.19-3.19,3.19h-6.39c-.07,0-.14.02-.2.05l-1.16.58v-4.74Z"/>
      <path class="st1" d="M11.91,522.45l.35.71-.35.71c-.07.14-.06.31.02.44.08.13.23.22.39.22h2.74s.01,0,.02,0c.05,0,.09-.01.14-.03.01,0,.02,0,.03-.01,0,0,.01,0,.02,0l1.73-.86h13.47l1.73.86s0,0,.01,0c.06.03.12.05.19.05h2.74c.16,0,.3-.08.39-.22.08-.13.09-.3.02-.44l-.35-.71.35-.71c.06-.13.06-.28,0-.41l-.35-.71.35-.71c.06-.13.06-.28,0-.41l-.35-.71.35-.71c.06-.13.06-.28,0-.41l-.35-.71.35-.71c.07-.14.06-.31-.02-.44-.08-.13-.23-.22-.39-.22h-2.74s-.01,0-.02,0c-.05,0-.09.01-.14.03-.01,0-.02,0-.03.01,0,0-.01,0-.02,0l-1.73.86h-13.47l-1.73-.86s-.01,0-.02,0c0,0-.02,0-.03-.01-.04-.02-.09-.03-.14-.03,0,0-.01,0-.02,0h-2.74c-.16,0-.3.08-.39.22-.08.13-.09.3-.02.44l.35.71-.35.71c-.06.13-.06.28,0,.41l.35.71-.35.71c-.06.13-.06.28,0,.41l.35.71-.35.71c-.06.13-.06.28,0,.41ZM32.84,517.23h1.54l-.13.25c-.06.13-.06.28,0,.41l.35.71-.35.71c-.06.13-.06.28,0,.41l.35.71-.35.71c-.06.13-.06.28,0,.41l.35.71-.35.71c-.06.13-.06.28,0,.41l.13.25h-1.54v-6.39ZM15.51,517.51l1.16.58c.06.03.13.05.2.05h13.68c.07,0,.14-.02.2-.05l1.16-.58v5.82l-1.16-.58c-.06-.03-.13-.05-.2-.05h-13.68c-.07,0-.14.02-.2.05l-1.16.58v-5.82ZM13.18,521.13l-.35-.71.35-.71c.06-.13.06-.28,0-.41l-.35-.71.35-.71c.06-.13.06-.28,0-.41l-.13-.25h1.54v6.39h-1.54l.13-.25c.06-.13.06-.28,0-.41l-.35-.71.35-.71c.06-.13.06-.28,0-.41Z"/>
      <path class="st1" d="M18.24,521.79h10.95c.25,0,.46-.2.46-.46v-1.82c0-.25-.2-.46-.46-.46h-10.95c-.25,0-.46.2-.46.46v1.82c0,.25.2.46.46.46ZM18.7,519.97h10.03v.91h-10.03v-.91Z"/>
    </g>
    <text class="st0" transform="translate(7.12 542.03)"><tspan x="0" y="0">Grocery</tspan></text>
    <rect class="st3" x="3.57" y="488.11" width="46.84" height="42.72" rx="2.89" ry="2.89"/>
  </g>
  <g>
    <g>
      <path class="st1" d="M37.37,570.16h-5.39c-.3,0-.54.24-.54.54v1.62c0,.26.18.48.43.53l.52.1c.45.09.86.28,1.21.55v.11c0,1.04-.52,2-1.38,2.57l.6.9c.86-.57,1.46-1.43,1.71-2.4.06.15.12.3.16.46.06.24.28.41.52.41h1.08v1.54l-1.46,4.87,1.03.31,1.37-4.56h2.38l.99,5.44v12.36c0,.89-.73,1.62-1.62,1.62h-1.39v1.08h1.39c1.49,0,2.7-1.21,2.7-2.7v-12.41s0-.06,0-.1l-1.07-5.88v-1.57h1.08c.3,0,.54-.24.54-.54,0-2.68-2.18-4.85-4.85-4.85ZM39.53,576.64h-2.16v-1.08h2.16v1.08ZM40.07,574.48h-4.46c-.48-1.31-1.62-2.31-3.01-2.58l-.08-.02v-.64h4.85c1.9,0,3.48,1.41,3.74,3.24h-1.04Z"/>
      <path class="st1" d="M12.55,598.21h3.78v-1.08h-3.78c-.89,0-1.62-.73-1.62-1.62v-7.72c0-.55.08-1.1.23-1.63l.83-2.9c.03-.1.03-.22,0-.32l-.95-2.84c-.07-.21-.1-.42-.1-.64,0-.6.27-1.17.73-1.56l2.16-1.8h5l1.57,1.3.69-.83-1.52-1.27v-1.37c0-.14-.06-.28-.16-.38l-.92-.92v-1.93c0-.3-.24-.54-.54-.54h-3.24c-.3,0-.54.24-.54.54v1.93l-.92.92c-.1.1-.16.24-.16.38v1.37l-2.12,1.77c-.71.59-1.12,1.46-1.12,2.39,0,.34.05.67.16.98l.89,2.68-.78,2.74c-.18.63-.27,1.27-.27,1.93v7.72c0,1.49,1.21,2.7,2.7,2.7ZM15.25,571.24h2.16v1.08h-2.16v-1.08ZM14.17,574.16l.76-.76h2.79l.76.76v.86h-4.32v-.86Z"/>
      <path class="st1" d="M19.57,579.33c0-1.21-1.42-2.16-3.24-2.16s-3.24.95-3.24,2.16,1.42,2.16,3.24,2.16,3.24-.95,3.24-2.16ZM14.17,579.33c0-.51.92-1.08,2.16-1.08s2.16.57,2.16,1.08-.92,1.08-2.16,1.08-2.16-.57-2.16-1.08Z"/>
      <path class="st1" d="M15.74,588.06l.36-1.02-3.36-1.2c-.16-.06-.35-.03-.49.07-.14.1-.23.27-.23.44v6.47c0,1.49,1.21,2.7,2.7,2.7h1.08v-1.08h-1.08c-.89,0-1.62-.73-1.62-1.62v-5.71l2.64.94Z"/>
      <path class="st1" d="M30.26,587.64c1.49,1.96,1.98,4.54,1.3,6.91-.14.49-.04,1,.26,1.4s.77.64,1.28.64c.68,0,1.29-.43,1.51-1.07h0c1.21-3.45.58-7.22-1.67-10.09l-.22-.28c-.51-.64-1.41-.85-2.14-.48-.46.23-.8.65-.91,1.16-.12.5,0,1.03.31,1.44l.28.36ZM30.72,586.08c.04-.19.17-.35.34-.44.09-.05.19-.07.29-.07.2,0,.39.09.52.25l.22.28c2.03,2.58,2.59,5.97,1.5,9.07-.13.36-.68.45-.91.14-.1-.13-.13-.3-.08-.46.77-2.69.21-5.63-1.48-7.86l-.28-.36c-.12-.16-.16-.35-.12-.54Z"/>
      <path class="st1" d="M19.66,602.29c.1.15.27.24.45.24h12.95c.16,0,.32-.07.42-.2l1.35-1.69c1.99-2.49,3.08-5.61,3.08-8.79,0-4.35-1.96-8.38-5.38-11.07l-2.17-1.71v-1.9c0-.3-.24-.54-.54-.54h-.54v-2.16c0-.6-.48-1.08-1.08-1.08h-4.32c-.59,0-1.08.48-1.08,1.08v2.16h-.54c-.3,0-.54.24-.54.54v1.96l-.72.84c-5.37,6.27-5.93,15.45-1.35,22.32ZM23.88,574.48h4.32v2.16h-4.32v-2.16ZM21.82,580.68l.85-.99c.08-.1.13-.22.13-.35v-1.62h6.47v1.08h-5.39v1.08h5.75l2.23,1.75c3.16,2.48,4.97,6.21,4.97,10.22,0,2.94-1.01,5.82-2.85,8.12l-1.19,1.48h-12.4c-4.14-6.44-3.57-14.94,1.43-20.77Z"/>
      <path class="st1" d="M25.23,598.21c2.08,0,4.02-1.04,5.17-2.78.08-.11.11-.25.08-.39-.65-3.88-2.12-6.93-4.37-9.06-.09-.08-.2-.14-.32-.15-.19-.02-.37-.03-.56-.03-3.42,0-6.2,2.78-6.2,6.2s2.78,6.2,6.2,6.2ZM25.23,586.89c.09,0,.19,0,.28,0,1.95,1.92,3.26,4.65,3.87,8.12-.96,1.33-2.5,2.12-4.15,2.12-2.83,0-5.12-2.3-5.12-5.12s2.3-5.12,5.12-5.12Z"/>
    </g>
    <text class="st0" transform="translate(4.63 619.92)"><tspan x="0" y="0">H&amp;B-GM</tspan></text>
    <rect class="st3" x="2.62" y="565.02" width="46.84" height="42.72" rx="2.89" ry="2.89"/>
  </g>
  <g>
    <text class="st0" transform="translate(11.12 307.1)"><tspan x="0" y="0">Dairy</tspan></text>
    <g>
      <path class="st1" d="M12.79,282.72c-.31,0-.56.25-.56.56v1.12h-1.67c-.31,0-.56.25-.56.56,0,2.15,1.75,3.9,3.9,3.9h12.27c1.06,0,2.02-.43,2.73-1.12h6.12c1.16,0,2.25-.51,2.99-1.39.74-.88,1.06-2.04.86-3.17l-.65-3.81h1.17c1.21,0,2.34-.51,3.12-1.39.79-.89,1.11-2.07.89-3.22l-1.49-7.81c-.35-1.86-2.04-3.2-4.01-3.2h-2.25l.05-2.17.55-2.7c.03-.16,0-.33-.11-.46s-.26-.21-.43-.21l-8.97-.04c-.77,0-1.83-.32-2.56-.78-1.23-.77-2.43-1.04-3.68-.82l-1.68.33c-.18.04-.34.16-.41.34-.07.17-.05.37.06.53l2.65,3.86.04,2.64-1.68,9.67-6.98,4.41s-.04.03-.06.05c-.02.02-.04.03-.05.05-.03.04-.06.08-.08.12,0,.02-.02.03-.03.04-.03.06-.04.13-.04.2,0,0,0,0,0,.01v2.23c0,.31.25.56.56.56s.56.25.56.56-.25.56-.56.56ZM26.18,287.74h-12.27c-1.35,0-2.47-.96-2.73-2.23h17.74c-.26,1.27-1.39,2.23-2.73,2.23ZM37.9,264.86c1.43,0,2.66.97,2.92,2.3l1.49,7.81c.15.81-.08,1.64-.63,2.27-.56.64-1.4,1.01-2.28,1.01h-1.36l-.19-1.12h1.55c.7,0,1.13-.37,1.32-.59.34-.39.48-.89.38-1.39l-1.49-7.81c-.15-.79-.87-1.37-1.7-1.37h-1.96l-.19-1.12h2.16ZM37.66,276.02l-1.53-8.93h1.77c.3,0,.56.19.61.46l1.49,7.81c.04.2-.05.35-.12.44-.08.1-.24.21-.48.21h-1.74ZM22.25,262.08h12.33l-.05,2.22s0,.07,0,.11l.79,4.63-1.71.35c-1.56.32-3.2.25-4.73-.21-2.14-.64-4.4-.61-6.52.1l-1.01.34.9-5.2s0-.07,0-.1l-.03-2.22ZM19.87,257.83l.83-.17c.96-.17,1.88.05,2.88.67.91.57,2.18.95,3.15.95l8.29.04-.33,1.64h-12.67l-2.15-3.13ZM21.15,270.85l1.58-.53c1.9-.64,3.93-.67,5.85-.09,1.7.51,3.53.59,5.27.24l1.68-.34,2.27,13.23c.14.81-.09,1.63-.62,2.26-.53.63-1.31.99-2.14.99h-5.32c.24-.51.38-1.07.38-1.67,0-.31-.25-.56-.56-.56h-1.67v-5.58c0-2.95-1.59-5.7-4.18-7.18-.18-.1-.4-.1-.58.01l-2.34,1.48.4-2.28ZM23.4,272.77c1.91,1.2,3.14,3.24,3.32,5.48h-12l8.68-5.48ZM13.35,283.74c.65-.23,1.12-.85,1.12-1.58s-.47-1.35-1.12-1.58v-1.21h13.39v5.02h-13.39v-.65Z"/>
      <rect class="st1" x="22.28" y="282.16" width="1.12" height="1.12"/>
      <rect class="st1" x="17.26" y="280.48" width="1.12" height="1.12"/>
    </g>
    <rect class="st3" x="2.69" y="252.41" width="46.84" height="42.72" rx="2.89" ry="2.89"/>
  </g>
  <g>
    <text class="st0" transform="translate(11.12 774.59)"><tspan x="0" y="0">Frozen</tspan></text>
    <rect class="st3" x="4.78" y="720.12" width="46.84" height="42.72" rx="2.89" ry="2.89"/>
    <g>
      <path class="st1" d="M15.28,753.2s0,0,0,0c0,0,0,0,0,.01-.02.05-.03.11-.03.17,0,0,0,.01,0,.02v3.11c0,.29.23.52.52.52h24.89c.29,0,.52-.23.52-.52v-3.11s0-.01,0-.02c0-.06-.01-.11-.03-.17,0,0,0-.01,0-.02,0,0,0,0,0,0l-2.03-4.57v-15.31l2.01-3.51s0-.02.01-.04c0-.01.01-.03.02-.04.02-.06.03-.11.04-.17,0,0,0,0,0,0v-3.11c0-.29-.23-.52-.52-.52H15.75c-.29,0-.52.23-.52.52v3.11s0,0,0,0c0,.06.01.12.04.17,0,.01.01.03.02.04,0,.01,0,.02.01.04l2.01,3.51v15.31l-2.03,4.57ZM40.13,756h-23.86v-2.07h23.86v2.07ZM16.27,726.96h23.86v2.07h-23.86v-2.07ZM18.28,732.93l-1.63-2.85h23.1l-1.63,2.85c-.04.08-.07.17-.07.26v15.56c0,.07.02.14.04.21l1.75,3.94h-23.3l1.75-3.94c.03-.07.04-.14.04-.21v-15.56c0-.09-.02-.18-.07-.26Z"/>
      <polygon class="st1" points="22.87 741.8 22.47 742.76 23.9 743.37 22.55 744.15 23.07 745.04 24.42 744.27 24.23 745.81 25.26 745.93 25.54 743.62 27.68 742.38 27.68 744.85 25.81 746.25 26.43 747.08 27.68 746.15 27.68 747.71 28.72 747.71 28.72 746.15 29.96 747.08 30.58 746.25 28.72 744.85 28.72 742.38 30.86 743.62 31.14 745.93 32.17 745.81 31.98 744.27 33.33 745.04 33.85 744.15 32.5 743.37 33.93 742.76 33.52 741.8 31.38 742.72 29.24 741.48 31.38 740.25 33.52 741.16 33.93 740.21 32.5 739.6 33.85 738.82 33.33 737.92 31.98 738.7 32.17 737.16 31.14 737.03 30.86 739.35 28.72 740.58 28.72 738.11 30.58 736.71 29.96 735.88 28.72 736.82 28.72 735.26 27.68 735.26 27.68 736.82 26.43 735.88 25.81 736.71 27.68 738.11 27.68 740.58 25.54 739.35 25.26 737.03 24.23 737.16 24.42 738.7 23.07 737.92 22.55 738.82 23.9 739.6 22.47 740.21 22.87 741.16 25.02 740.25 27.16 741.48 25.02 742.72 22.87 741.8"/>
    </g>
  </g>
  <g>
    <text class="st0" transform="translate(14.31 849.13)"><tspan x="0" y="0">Floral</tspan></text>
    <rect class="st3" x="5.96" y="794.66" width="46.84" height="42.72" rx="2.89" ry="2.89"/>
    <path class="st1" d="M18.44,829.16c-.57.62-1.3,1.09-2.24,1.21l.13,1.02c1.21-.15,2.13-.73,2.84-1.49l1.35,1.35c.1.1.23.15.36.15.07,0,.13-.01.2-.04.19-.08.32-.27.32-.47v-4.65l1,1.82c.33.61.95,1.02,1.64,1.09.07,0,.15.01.22.01.62,0,1.2-.27,1.61-.74h0c.46-.54.62-1.26.43-1.95s-.7-1.22-1.37-1.45l-.4-.13,17.93-1.75c.16-.02.3-.1.38-.24.08-.13.1-.3.05-.45l-.1-.28c-.39-1.06-.84-2.09-1.33-3.1.39-.04.73-.23.96-.55.26-.36.33-.81.2-1.23-.07-.21-.16-.42-.23-.63l1.4-1.29c.11-.1.16-.23.16-.38s-.06-.28-.16-.38l-1.4-1.29c.08-.21.16-.42.23-.63.14-.42.07-.87-.19-1.23-.26-.36-.67-.57-1.11-.57h-1.19l1.54-1.54c.33-.33.48-.78.41-1.23-.07-.46-.34-.84-.75-1.06l-.48-.26h.02v-2.05c0-.28-.23-.51-.51-.51h-1.94l-.36-.67c-.22-.41-.61-.68-1.06-.75-.46-.07-.91.08-1.23.41l-1.54,1.54v-1.48c0-.45-.21-.85-.57-1.11-.36-.26-.81-.33-1.23-.2-.21.07-.42.16-.63.23l-1.29-1.4c-.19-.21-.56-.21-.75,0l-1.28,1.39c-.21-.08-.42-.16-.64-.23-.42-.14-.87-.07-1.23.19-.36.26-.57.67-.57,1.11v.03c-.75-.39-1.52-.76-2.3-1.09,0,0-.01,0-.02,0-.07-.03-.13-.04-.2-.03,0,0-.02,0-.03,0-.06,0-.13.02-.18.05,0,0-.01,0-.02.01,0,0,0,0,0,0,0,0,0,0-.01.01-.06.04-.12.09-.16.15,0,0,0,0,0,.01-.04.06-.07.13-.08.21l-2.27,19.06-.33-1.19c-.17-.63-.64-1.14-1.26-1.36-.62-.22-1.3-.12-1.83.26-.55.39-.86,1.03-.84,1.71.03.68.39,1.29.97,1.64l1.59.95h-4.81c-.21,0-.39.12-.47.32-.08.19-.04.41.11.56l2.93,2.93c-.88.47-1.91.8-3.08.8v1.02c1.49,0,2.78-.44,3.85-1.06l.89.89ZM24.6,825.99c.35.12.61.39.71.75.1.36.02.72-.22,1.01-.24.28-.58.41-.95.38-.36-.04-.67-.24-.85-.57l-1.32-2.42h.04s2.59.86,2.59.86ZM41.96,814.34l.71.65-.71.65c-.1-.22-.2-.43-.3-.65.11-.22.2-.44.3-.66ZM41.58,817.92c-.07.09-.17.14-.28.14h-.37c-.17-.32-.34-.64-.52-.96.22-.33.44-.66.64-.99.22.49.42.99.58,1.5.04.11.02.22-.05.31ZM41.29,811.92c.11,0,.22.05.28.14s.08.21.05.31c-.43,1.32-1.04,2.57-1.8,3.75-.79-1.3-1.67-2.54-2.63-3.71.57-.05,1.12-.22,1.63-.49h2.47ZM40.83,807.96c.12.06.2.18.22.31s-.02.26-.12.36l-1.09,1.09c.14-.44.19-.91.15-1.39-.03-.31-.08-.61-.15-.91l1,.54ZM39.83,805.26v1l-.51-.27c-.04-.09-.08-.19-.13-.28l-.24-.45h.88ZM34.65,805.77l1.81-1.81c.1-.09.23-.14.36-.12.13.02.25.1.31.22l1.15,2.15c.37.69.6,1.44.67,2.23.07.81-.21,1.55-.79,2.08-.56.51-1.31.75-2.03.66-.76-.85-1.55-1.67-2.39-2.44-.21-1.08.13-2.19.91-2.97ZM41.68,822.19l-17.89,1.74c2.17-1.29,5.03-3.69,6.29-7.76,1.49-4.85-.62-8.6-2.8-10.98,6.54,3.86,11.66,9.86,14.4,17ZM32.72,802.96c.11-.04.22-.02.31.05s.14.17.14.28v1.6c-.62-.5-1.27-.95-1.95-1.35.49-.22.99-.42,1.49-.58ZM30.1,801.92l.65.71c-.22.1-.43.19-.65.3-.21-.11-.43-.21-.65-.31l.64-.7ZM27.03,803.29c0-.11.05-.22.14-.28.09-.07.21-.08.31-.05,2.07.67,3.96,1.76,5.64,3.22-.25.5-.4,1.04-.44,1.6-1.74-1.48-3.64-2.8-5.65-3.92v-.56ZM23.92,803.58c.77.53,2.07,1.55,3.22,2.98,2.32,2.88,2.98,6.01,1.96,9.31-1.52,4.93-5.72,7.25-7.53,8.04l-.08-.03,2.42-20.3ZM19.06,828.33l-.63-.63c.58-.43,1.08-.9,1.49-1.35-.2.64-.47,1.34-.86,1.98ZM20.37,829.64l-.56-.56c.21-.33.4-.67.56-1.01v1.57ZM17.97,821.87c-.29-.17-.46-.46-.47-.8-.01-.33.14-.64.41-.83.26-.19.59-.23.89-.13.3.11.53.35.61.66l.64,2.34-2.08-1.25ZM15.46,824.73h4.46c-.46.62-1.21,1.49-2.23,2.23l-2.23-2.23Z"/>
  </g>
  <g>
    <text class="st0" transform="translate(19.31 923.67)"><tspan x="0" y="0">Deli</tspan></text>
    <rect class="st3" x="5.96" y="869.2" width="46.84" height="42.72" rx="2.89" ry="2.89"/>
    <g>
      <path class="st1" d="M20.97,894.55l4.34-5.07,6.48,1.62c.14.04.29.01.41-.06.12-.07.21-.19.25-.34.15-.6.22-1.21.22-1.83,0-4.17-3.39-7.55-7.55-7.55s-7.55,3.39-7.55,7.55c0,2.21.96,4.3,2.64,5.74.23.2.57.17.77-.06h0ZM20.52,893.41c-1.19-1.21-1.86-2.83-1.86-4.54,0-3.57,2.9-6.47,6.47-6.47s6.47,2.9,6.47,6.47c0,.35-.03.69-.08,1.04l-6.25-1.56c-.2-.05-.41.02-.55.17l-4.19,4.89ZM20.52,893.41"/>
      <g class="st4">
        <path class="st1" d="M48.65,902.58l-4.64-12.23c-.11-.28-.42-.42-.7-.32-.28.11-.42.42-.32.7l4.43,11.67h-15.45c3.65-9.62,5.67-14.95,7.72-20.35l2.36,6.21c.11.28.42.42.7.32.28-.11.42-.42.32-.7l-2.74-7.22c-.1-.27-.35-.44-.63-.44s-.53.17-.63.44l-1.47,3.88c-.93-2.16-2.43-4.08-4.31-5.51-2.37-1.78-5.19-2.73-8.16-2.73-1.99,0-3.91.42-5.71,1.26-.27.13-.39.45-.26.72.13.27.45.39.72.26,1.65-.77,3.42-1.15,5.25-1.15,5.4,0,10.26,3.56,11.89,8.69l-.56,1.48c-1.07-5.27-5.74-9.25-11.33-9.25-6.37,0-11.56,5.19-11.56,11.56s5.19,11.56,11.56,11.56c2.53,0,4.96-.83,6.95-2.32l-.56,1.48c-1.93,1.15-4.13,1.76-6.38,1.76-6.88,0-12.47-5.6-12.47-12.47,0-3.99,1.93-7.77,5.16-10.11.24-.18.3-.52.12-.76-.18-.24-.52-.3-.76-.12-1.7,1.23-3.11,2.87-4.08,4.72-1,1.92-1.53,4.09-1.53,6.27,0,7.48,6.08,13.56,13.56,13.56,2.02,0,4-.45,5.8-1.3l-.17.45c-.08.21-.05.44.08.63.13.18.34.29.56.29h16.63c.22,0,.43-.11.56-.29.13-.18.16-.42.08-.63h0ZM25.12,900.35c-5.77,0-10.47-4.7-10.47-10.47s4.7-10.47,10.47-10.47,10.45,4.67,10.47,10.42l-2.67,7.03c-1.99,2.22-4.82,3.49-7.8,3.49h0ZM25.12,900.35"/>
      </g>
      <path class="st1" d="M36.7,897.34c-.31,0-.59-.14-.77-.39-.12-.16-.31-.24-.51-.22-.2.03-.36.16-.43.35l-1.4,3.68c-.06.17-.04.35.06.5.1.15.27.23.45.23h11.22c.18,0,.35-.09.45-.23.1-.15.12-.34.06-.5l-3.38-8.9c-.07-.18-.22-.3-.4-.34-.18-.04-.37.02-.5.16-.09.09-.21.15-.33.15-.25,0-.46-.21-.46-.46s.21-.46.46-.46c.01,0,.03,0,.04,0,.19.02.37-.06.48-.21.11-.15.14-.35.08-.52l-1.59-4.2c-.08-.21-.28-.35-.51-.35s-.43.14-.51.35l-3.32,8.73c-.07.19-.03.4.1.55.13.15.33.22.53.18.6-.13,1.16.33,1.16.94,0,.53-.43.96-.96.96h0ZM37.17,894.39l2.54-6.68.86,2.26c-.53.24-.9.78-.9,1.4,0,.85.69,1.55,1.55,1.55.15,0,.3-.02.45-.07l2.87,7.56h-9.64l.85-2.23c.29.16.63.25.97.25,1.13,0,2.05-.92,2.05-2.05,0-.97-.67-1.78-1.58-1.99h0ZM37.17,894.39"/>
      <path class="st1" d="M41.2,899.43c.85,0,1.55-.69,1.55-1.55s-.69-1.55-1.55-1.55-1.55.69-1.55,1.55.69,1.55,1.55,1.55h0ZM41.2,897.43c.25,0,.46.21.46.46s-.21.46-.46.46-.46-.21-.46-.46.21-.46.46-.46h0ZM41.2,897.43"/>
      <path class="st1" d="M39.97,894.74c0,.3-.24.54-.54.54s-.54-.24-.54-.54.24-.54.54-.54.54.24.54.54h0ZM39.97,894.74"/>
      <path class="st1" d="M39.2,899.34c0,.3-.24.54-.54.54s-.54-.24-.54-.54.24-.54.54-.54.54.24.54.54h0ZM39.2,899.34"/>
    </g>
  </g>
  <g>
    <text class="st0" transform="translate(-2.5 698.05)"><tspan x="0" y="0">Liquor-Beer</tspan></text>
    <rect class="st3" x="4.15" y="643.58" width="46.84" height="42.72" rx="2.89" ry="2.89"/>
    <g>
      <path class="st1" d="M43.86,670.68c-.11-.13-.27-.2-.44-.2h-9.07c-.17,0-.33.07-.44.2-.11.13-.16.3-.14.46l1.41,10.71c.04.29.29.51.58.51h6.25c.29,0,.54-.22.58-.51l1.41-10.71c.02-.17-.03-.34-.14-.46ZM42.75,671.65l-.92,6.96h-5.9l-.92-6.96h7.74ZM36.28,681.19l-.19-1.41h5.59l-.19,1.41h-5.22Z"/>
      <g class="st6">
        <g>
          <path class="st1" d="M15.92,666.69v9.89c0,.62.5,1.12,1.12,1.12s1.12-.5,1.12-1.12v-9.89c0-.62-.5-1.12-1.12-1.12s-1.12.5-1.12,1.12ZM16.75,666.69c0-.16.13-.3.3-.3s.3.13.3.3v9.89c0,.16-.13.3-.3.3s-.3-.13-.3-.3v-9.89Z"/>
          <path class="st1" d="M10.91,671.86c.43,1.31.87,2.67.63,3.34-.23.64-.09,1.26.37,1.69.35.33.85.51,1.35.51.26,0,.52-.05.76-.15.04-.02.07-.04.11-.06v2.07c0,.59.4,1.07.95,1.21v.76c0,.23.19.41.41.41h9.54c.23,0,.41-.19.41-.41v-.76c.54-.14.95-.63.95-1.21v-16.95c.65-.35,1.09-1.04,1.09-1.83,0-1.14-.93-2.07-2.07-2.07-.18,0-.36.02-.54.07-.35-.92-1.24-1.54-2.26-1.54-.86,0-1.65.46-2.08,1.19-.61-.23-1.3-.21-1.89.05-.36-.35-.83-.55-1.34-.55-.92,0-1.69.65-1.87,1.51-1.33-.04-2.4,1.03-2.4,2.34,0,.83.44,1.56,1.09,1.98v1.51c-1.11-.3-2.79-.25-3.74,1.46-.79,1.42-.09,3.55.52,5.43ZM26.66,660.48c0,.69-.56,1.24-1.24,1.24-.15,0-.3-.03-.44-.08-.19-.07-.41,0-.51.19-.17.31-.5.51-.85.51-.19,0-.38-.06-.54-.16-.07-.05-.15-.07-.23-.07-.07,0-.13.02-.19.05-.13.07-.22.21-.22.37v4.44c0,.2-.16.35-.35.35s-.35-.16-.35-.35v-5.08c0-.17-.11-.33-.27-.39-.16-.06-.35-.01-.46.12-.33.39-.81.62-1.32.62h-.03s0,0,0,0c-.2,0-.37.14-.41.34-.14.71-.76,1.23-1.49,1.23-.53,0-1.01-.27-1.29-.73-.1-.17-.32-.24-.5-.17-.18.07-.36.11-.55.11-.84,0-1.52-.68-1.52-1.52s.87-1.7,1.85-1.48c.12.03.26,0,.35-.08s.15-.2.15-.33c0,0,0-.03,0-.04,0-.6.49-1.09,1.09-1.09.36,0,.69.18.9.47.12.18.37.23.56.12.53-.33,1.22-.33,1.76-.02.11.06.23.07.35.03.12-.04.21-.13.25-.25.23-.63.83-1.05,1.5-1.05.78,0,1.44.56,1.57,1.34.02.13.11.25.23.31.12.06.26.05.38-.01.19-.1.4-.16.61-.16.69,0,1.24.56,1.24,1.24ZM23.25,666.96v-.44c.06-.08.14-.12.24-.12.16,0,.3.13.3.3v9.89c0,.16-.13.3-.3.3s-.3-.13-.3-.3v-9.28c.03-.11.06-.23.06-.35ZM15.91,680.82v-.31h8.71v.31h-8.71ZM14.96,663.79c.14.03.28.04.42.04.18,0,.36-.02.54-.06.44.54,1.1.85,1.81.85,1.01,0,1.89-.65,2.21-1.57.33-.04.65-.14.94-.3v3.01c-.18-.12-.39-.19-.62-.19-.62,0-1.12.5-1.12,1.12v9.89c0,.62.5,1.12,1.12,1.12s1.12-.5,1.12-1.12v-8.66c.19.14.43.22.68.22.1,0,.2-.02.3-.04v8.49c0,.62.5,1.12,1.12,1.12s1.12-.5,1.12-1.12v-9.89c0-.62-.5-1.12-1.12-1.12-.08,0-.16.01-.24.03v-2.46c.12.02.24.04.36.04.55,0,1.05-.25,1.39-.66.14.03.28.04.42.04.05,0,.1,0,.15,0v16.71c0,.24-.19.43-.43.43h-9.74c-.24,0-.43-.19-.43-.43v-15.47ZM20.26,676.89c-.16,0-.3-.13-.3-.3v-9.89c0-.16.13-.3.3-.3s.3.13.3.3v9.89c0,.16-.13.3-.3.3ZM11.11,666.84c.44-.79,1.11-1.19,2-1.17.42,0,.79.1,1.02.18v9.89c0,.37-.15.62-.44.75-.38.17-.91.08-1.21-.2-.22-.2-.27-.48-.15-.81.33-.94-.11-2.3-.63-3.87-.56-1.72-1.2-3.66-.58-4.77Z"/>
        </g>
      </g>
      <g class="st5">
        <path class="st1" d="M35.92,661.22c-.85-.48-1.38-1.39-1.38-2.36v-4.64c.98-.55,1.65-1.6,1.65-2.81,0-1.84-1.55-3.33-3.41-3.21-.37-.74-1.14-1.23-2-1.23s-1.64.5-2.01,1.24c-.09,0-.19-.02-.28-.02-1.48,0-2.68,1.2-2.68,2.68,0,1.11.68,2.07,1.65,2.47v5.51c0,.98-.53,1.88-1.38,2.36-1.22.69-1.97,1.99-1.97,3.38v15.53c0,1.01.82,1.84,1.83,1.84h10.12c1.01,0,1.83-.82,1.83-1.84v-15.53c0-1.4-.76-2.7-1.97-3.38ZM25.28,669.52h2.16c.66,0,1.28-.35,1.62-.9.51-.85,1.22-1.33,1.94-1.33s1.43.49,1.94,1.33c.34.56.96.9,1.62.9h2.16v3.9h-2.16c-.66,0-1.28.35-1.62.9-.51.85-1.22,1.33-1.94,1.33s-1.43-.49-1.94-1.33c-.34-.56-.96-.9-1.62-.9h-2.16v-3.9ZM26.98,650.87c0-.83.68-1.51,1.51-1.51.16,0,.32.03.48.08.16.05.33.04.48-.05.15-.08.25-.23.28-.39.1-.5.54-.86,1.06-.86s.93.34,1.05.84c.07.32.39.51.7.44,1.33-.3,2.5.72,2.5,1.99,0,1.13-.92,2.04-2.04,2.04-.12,0-.24-.01-.37-.03-.17-.03-.35.02-.48.13-.13.11-.21.28-.21.45v5.69c0,.28-.23.5-.5.5s-.5-.23-.5-.5v-7.84c0-.27-.18-.5-.44-.57-.05-.01-.09-.02-.14-.02-.21,0-.41.12-.52.31-.26.5-.77.81-1.33.81-.83,0-1.51-.68-1.51-1.51ZM26.65,662.24c1.22-.69,1.97-1.99,1.97-3.39v-5.31c.4-.02.78-.12,1.12-.31v6.45c0,.92.75,1.68,1.68,1.68s1.68-.75,1.68-1.68v-5.07c.09,0,.19-.01.28-.02v4.25c0,1.4.76,2.7,1.97,3.39.85.48,1.38,1.39,1.38,2.36v3.74h-2.16c-.25,0-.49-.13-.61-.34-.73-1.21-1.8-1.9-2.95-1.9s-2.22.69-2.95,1.9c-.13.21-.36.34-.61.34h-2.16v-3.74c0-.98.53-1.88,1.38-2.36ZM36.06,680.79h-10.12c-.37,0-.66-.3-.66-.66v-5.53h2.16c.25,0,.49.13.61.34.73,1.21,1.8,1.9,2.95,1.9s2.22-.69,2.95-1.9c.13-.21.36-.34.61-.34h2.16v5.53c0,.37-.3.66-.66.66Z"/>
      </g>
    </g>
  </g>
</svg>